<?xml version="1.0" encoding="iso-8859-1"?>
<!-- Generator: Adobe Illustrator 19.0.0, SVG Export Plug-In . SVG Version: 6.00 Build 0)  -->
<svg version="1.1" id="Capa_1" xmlns="http://www.w3.org/2000/svg" xmlns:xlink="http://www.w3.org/1999/xlink" x="0px" y="0px"
	 viewBox="0 0 512 512" style="enable-background:new 0 0 512 512;" xml:space="preserve">
<g>
	<g>
		<g>
			<path d="M398,123.977h-64.024V76.394c0-42.124-34.991-76.394-78-76.394c-43.009,0-78,34.27-78,76.394v47.583H114v228h284V123.977
				z M217.976,76.394c0-20.068,17.047-36.394,38-36.394s38,16.326,38,36.394v47.583h-76V76.394z M358,311.977H154v-148h204V311.977z
				"/>
			<path d="M236,246.355V272h40v-25.645c6.136-5.493,10-13.471,10-22.355c0-16.568-13.431-30-30-30c-16.569,0-30,13.431-30,30
				C226,232.884,229.864,240.862,236,246.355z"/>
			<path d="M462,312h-24v40h24c5.514,0,10,4.486,10,10v100c0,5.514-4.486,10-10,10H50c-5.514,0-10-4.486-10-10V362
				c0-5.514,4.486-10,10-10h24v-40H50c-27.57,0-50,22.43-50,50v100c0,27.57,22.43,50,50,50h412c27.57,0,50-22.43,50-50V362
				C512,334.43,489.57,312,462,312z"/>
			<circle cx="216" cy="412" r="20"/>
			<circle cx="376" cy="412" r="20"/>
			<circle cx="136" cy="412" r="20"/>
			<circle cx="296" cy="412" r="20"/>
		</g>
	</g>
</g>
<g>
</g>
<g>
</g>
<g>
</g>
<g>
</g>
<g>
</g>
<g>
</g>
<g>
</g>
<g>
</g>
<g>
</g>
<g>
</g>
<g>
</g>
<g>
</g>
<g>
</g>
<g>
</g>
<g>
</g>
</svg>
